<svg data-v-75e6ea04="" xmlns="http://www.w3.org/2000/svg" fill="currentColor" viewBox="0 0 157 40"
    width="157" height="40" role="presentation" class="">
    <path data-v-75e6ea04="" fill-rule="evenodd"
        d="M67.8788 15.9773C67.8788 2.49005 47.8885.219727 33.9394.219727V8.09851C19.9902 8.09851 0 10.3688 0 23.8561c0 13.4873 19.9902 15.7576 33.9394 15.7576v-7.8788c13.9491 0 33.9394-2.2703 33.9394-15.7576ZM33.9394 31.7349v-7.8788c12.7037 0 30.9091-1.1352 30.9091-7.8788 0-6.74364-18.2054-7.87879-30.9091-7.87879v7.87879c-12.7037 0-30.9091 1.1352-30.9091 7.8788s18.2054 7.8788 30.9091 7.8788ZM148.837 19.917c0 5.1494-2.865 8.4014-7.786 8.4014-4.921 0-7.785-3.246-7.785-8.4014s2.947-8.4014 7.785-8.4014 7.786 3.252 7.786 8.4014Zm-2.801 0c0 3.8251-1.767 6.2407-4.985 6.2407-3.218 0-4.985-2.4111-4.985-6.2407 0-3.8296 1.767-6.2407 4.985-6.2407 3.218 0 4.985 2.4156 4.985 6.2407Z"
        clip-rule="evenodd"></path>
    <path data-v-75e6ea04=""
        d="M125.258 11.8948h2.846v2.2674h.161c.221-.4514.536-.8818.945-1.2912.41-.4094.961-.7243 1.653-.9448.704-.2309 1.673-.2886 2.765-.1731v2.3933c-1.113-.1154-2.048-.042-2.877.2205-.83.2519-1.476.7505-1.937 1.4958-.452.7453-.677 1.7898-.677 3.1335v8.9437h-2.879V11.8948Z"></path>
    <path data-v-75e6ea04="" fill-rule="evenodd"
        d="M108.719 19.9091c0-2.7292.728-4.8077 2.114-6.2353 1.386-1.4382 3.254-2.1572 5.606-2.1572 2.372 0 4.183.6928 5.432 2.0784 1.249 1.3857 1.945 3.2594 1.945 5.6214v1.3269h-12.333c.032 1.7636.447 3.1239 1.318 4.1526.882 1.0183 2.095 1.5274 3.638 1.5274.976 0 1.779-.168 2.409-.5039 1.206-.6968 1.974-1.7697 2.042-2.8028h2.672c-.068 1.0057-.83 2.6729-1.975 3.6845-.55.487-1.222.9186-2.062 1.244-.84.3149-1.863.4724-3.07.4724-2.352 0-4.226-.7191-5.622-2.1572-1.386-1.4381-2.114-3.5219-2.114-6.2512Zm2.811-1.4888h9.518c-.01-1.4591-.369-2.5631-1.145-3.4554-.777-.9027-1.937-1.3541-3.48-1.3541-1.512 0-2.687.4514-3.527 1.3541-.829.9028-1.261 2.0068-1.366 3.4554Z"
        clip-rule="evenodd"></path>
    <path data-v-75e6ea04=""
        d="M108.424 11.8945H95.7214v2.214h9.3416l-9.6568 11.6066v2.2246h13.1288v-2.2246h-9.7615l9.6505-11.6066v-2.214ZM80 11.8944h2.8479v2.2674h.1594c.1788-.3464.4624-.719.8503-1.1179.3994-.4094.9448-.7611 1.6376-1.055.7036-.3044 1.606-.4567 2.7084-.4567 1.7637 0 3.1806.4777 4.2515 1.4329 1.071.9552 1.6061 2.3514 1.6061 4.1885v10.7859h-2.8788v-10.597c0-1.2597-.3466-2.1782-1.0394-2.7555-.6824-.5879-1.4775-.8818-2.6006-.8818-.8606 0-1.5818.1837-2.306.5511-.7243.3674-1.2709.9185-1.7122 1.6533-.4303.7348-.6454 1.6586-.6454 2.7713v9.2586H80V11.8944Zm70.552.6595v3.1299h.834v-3.1299h1.169v-.6643h-3.172v.6643h1.169Zm2.362 3.1299h.776v-1.7323c0-.372-.006-.6112-.016-.9831h.021c.085.3241.144.5314.266.9034l.595 1.812h.771l.595-1.812c.122-.372.181-.5793.265-.9034h.022c-.011.3719-.016.6111-.016.9831v1.7323h.776v-3.7942h-1.068l-.67 2.0406c-.111.3561-.191.6483-.276 1.0096h-.022c-.09-.3613-.164-.6535-.281-1.0096l-.67-2.0406h-1.068v3.7942Z"></path>
</svg>